<svg width="200" height="52" viewBox="0 0 200 52" fill="none" xmlns="http://www.w3.org/2000/svg">
<path d="M170.453 0L192.361 39.0321H183.115L170.412 16.9131L163.385 29.0602L158.14 21.2821L170.453 0Z" fill="#DD02DD"/>
<path d="M169.644 42.6521L194.477 42.7953L200 51.3082H155.629L168.785 27.9552L173.596 35.8234L169.644 42.6521Z" fill="#1A1CFD"/>
<path d="M156.216 24.6094L161.465 32.4408L150.695 51.3061H140.971L144.124 45.5068C144.135 45.4884 156.216 24.6074 156.216 24.6074V24.6094Z" fill="#1A1CFD"/>
<path d="M0.0532227 0.620056H13.8252V6.5115H7.5797V8.63971H13.0619V13.9848H7.5797V21.1838H0.0532227V0.620056Z" fill="white"/>
<path d="M16.5262 0.620056H23.9995V21.1838H16.5262V0.620056Z" fill="white"/>
<path d="M46.7447 0.620056L37.8001 14.8299L37.882 14.9384C38.455 14.8831 39.0545 14.8299 39.6275 14.8299H45.8464V21.1838H25.829L33.247 9.15743C33.7934 8.25704 34.4196 7.49375 35.0744 6.67521L34.9659 6.59336C34.393 6.73046 33.82 6.83892 33.1938 6.83892H27.6032V0.620056H46.7488H46.7447Z" fill="white"/>
<path d="M67.7708 0.620056L58.8263 14.8299L58.9081 14.9384C59.4811 14.8831 60.0807 14.8299 60.6536 14.8299H66.8725V21.1838H46.8551L54.2731 9.15743C54.8195 8.25704 55.4457 7.49375 56.1005 6.67521L55.9921 6.59336C55.4191 6.73046 54.8461 6.83892 54.2199 6.83892H48.6293V0.620056H67.7749H67.7708Z" fill="white"/>
<path d="M70.3083 7.22159V0.620056H90.2725L78.5736 21.1838H70.3104L78.0558 8.17519C78.3014 7.73931 78.547 7.24819 78.9276 6.94737V6.78367L75.9276 7.02923L70.3104 7.21954L70.3083 7.22159Z" fill="#1A1CFD"/>
<path d="M92.9984 7.22159V0.620056H112.963L101.264 21.1838H93.0005L100.746 8.17519C100.991 7.73931 101.237 7.24819 101.618 6.94737V6.78367L98.6177 7.02923L93.0005 7.21954L92.9984 7.22159Z" fill="#1A1CFD"/>
<path d="M115.688 7.22159V0.620056H135.652L123.953 21.1838H115.69L123.436 8.17519C123.681 7.73931 123.927 7.24819 124.307 6.94737V6.78367L121.308 7.02923L115.69 7.21954L115.688 7.22159Z" fill="#1A1CFD"/>
<path d="M138.38 7.22159V0.620056H158.344L146.645 21.1838H138.382L146.128 8.17519C146.373 7.73931 146.619 7.24819 146.999 6.94737V6.78367L144 7.02923L138.382 7.21954L138.38 7.22159Z" fill="#1A1CFD"/>
<path d="M0 28.8249H8.94459C13.776 28.8249 17.1157 31.0616 17.1157 36.2204C17.1157 41.3793 14.2528 43.8533 9.15332 43.8533H5.84438V51.3081H0V28.8249ZM5.84438 39.1426H6.82867C8.94664 39.1426 11.0339 39.1426 11.0339 36.3984C11.0339 33.6543 9.09602 33.5356 6.82867 33.5356H5.84438V39.1405V39.1426Z" fill="white"/>
<path d="M36.3186 51.3081H30.8917V49.6076H30.8323C29.8787 51.1281 28.0002 51.8136 26.2096 51.8136C21.677 51.8136 18.4867 48.0258 18.4867 43.6425C18.4867 39.2592 21.6176 35.5021 26.1503 35.5021C27.9101 35.5021 29.758 36.159 30.8917 37.4994V36.0076H36.3186V51.3041V51.3081ZM24.0937 43.6732C24.0937 45.6111 25.3768 47.1029 27.5827 47.1029C29.7887 47.1029 31.0717 45.6111 31.0717 43.6732C31.0717 41.7353 29.7887 40.2149 27.5827 40.2149C25.3768 40.2149 24.0937 41.7947 24.0937 43.6732Z" fill="white"/>
<path d="M45.3532 38.5164H45.4125C46.4562 36.6379 48.2447 35.8029 50.3627 35.8029H51.4063V41.0211C50.6614 40.6037 49.9452 40.5136 49.1103 40.5136C46.0981 40.5136 45.3532 42.5109 45.3532 45.1364V51.3081H39.9263V36.0117H45.3532V38.5164Z" fill="white"/>
<path d="M59.9048 51.3081H54.4779V40.4829H52.718V36.0096H54.4779V31.4176H59.9048V36.0096H62.9764V40.4829H59.9048V51.3081Z" fill="white"/>
<path d="M70.1325 37.9782H70.1918C71.4442 36.1304 72.9646 35.5042 75.0826 35.5042C79.1978 35.5042 80.8369 38.099 80.8369 41.8561V51.3082H75.41V43.8533C75.41 42.3922 75.6494 39.8281 72.9646 39.8281C70.7587 39.8281 70.1325 41.4672 70.1325 43.3765V51.3082H64.7056V36.0117H70.1325V37.9803V37.9782Z" fill="white"/>
<path d="M100.13 44.5695H88.7093C88.7093 46.7755 89.8716 47.9685 92.1083 47.9685C93.2706 47.9685 94.1055 47.5797 94.703 46.5668H99.9212C99.0556 50.1745 95.628 51.8156 92.139 51.8156C87.0701 51.8156 83.2823 48.9528 83.2823 43.6753C83.2823 38.3977 86.7714 35.5042 91.7501 35.5042C97.0584 35.5042 100.13 38.7845 100.13 44.0027V44.5695ZM95.0898 41.4386C94.8217 39.9775 93.4793 39.0239 92.0182 39.0239C90.4384 39.0239 89.1267 39.8588 88.7973 41.4386H95.0898Z" fill="white"/>
<path d="M108.031 38.5164H108.09C109.134 36.6379 110.922 35.8029 113.04 35.8029H114.084V41.0211C113.339 40.6037 112.623 40.5136 111.788 40.5136C108.776 40.5136 108.031 42.5109 108.031 45.1364V51.3081H102.604V36.0117H108.031V38.5164Z" fill="white"/>
<path d="M126.221 39.9468C125.386 39.4987 124.224 39.2019 123.299 39.2019C122.672 39.2019 121.598 39.47 121.598 40.2456C121.598 41.2892 123.299 41.4386 124.043 41.588C126.579 42.0955 128.486 43.2885 128.486 46.1207C128.486 50.1458 124.819 51.8156 121.271 51.8156C119.093 51.8156 116.947 51.1895 115.099 50.0558L117.067 46.268C118.17 47.0436 120.02 47.8191 121.361 47.8191C122.046 47.8191 123.061 47.4917 123.061 46.6568C123.061 45.4638 121.361 45.4044 119.662 44.9563C117.962 44.5081 116.263 43.6732 116.263 40.9311C116.263 37.174 119.662 35.5042 123.002 35.5042C124.731 35.5042 126.46 35.7723 128.042 36.4885L126.223 39.9468H126.221Z" fill="white"/>
</svg>
