<svg width="201" height="52" viewBox="0 0 201 52" fill="none" xmlns="http://www.w3.org/2000/svg">
<path d="M170.953 0L192.861 39.0321H183.615L170.912 16.9131L163.885 29.0602L158.64 21.2821L170.953 0Z" fill="#DD02DD"/>
<path d="M170.144 42.6521L194.977 42.7953L200.5 51.3082H156.129L169.285 27.9552L174.096 35.8234L170.144 42.6521Z" fill="#1A1CFD"/>
<path d="M156.716 24.6094L161.965 32.4408L151.195 51.3061H141.471L144.624 45.5068C144.635 45.4883 156.716 24.6074 156.716 24.6074V24.6094Z" fill="#1A1CFD"/>
<path d="M0.553284 0.620049H14.3252V6.51149H8.07976V8.6397H13.5619V13.9848H8.07976V21.1838H0.553284V0.620049Z" fill="white"/>
<path d="M17.0263 0.620049H24.4996V21.1838H17.0263V0.620049Z" fill="white"/>
<path d="M47.2448 0.620049L38.3002 14.8299L38.382 14.9384C38.955 14.8831 39.5546 14.8299 40.1276 14.8299H46.3464V21.1838H26.329L33.7471 9.15743C34.2934 8.25703 34.9196 7.49374 35.5744 6.6752L35.466 6.59335C34.893 6.73045 34.32 6.83891 33.6939 6.83891H28.1032V0.620049H47.2489H47.2448Z" fill="white"/>
<path d="M68.271 0.620049L59.3264 14.8299L59.4082 14.9384C59.9812 14.8831 60.5808 14.8299 61.1538 14.8299H67.3726V21.1838H47.3552L54.7732 9.15743C55.3196 8.25703 55.9458 7.49374 56.6006 6.6752L56.4922 6.59335C55.9192 6.73045 55.3462 6.83891 54.72 6.83891H49.1294V0.620049H68.2751H68.271Z" fill="white"/>
<path d="M70.8085 7.22158V0.620049H90.7727L79.0737 21.1838H70.8105L78.556 8.17518C78.8015 7.73931 79.0471 7.24818 79.4277 6.94737V6.78366L76.4278 7.02922L70.8105 7.21953L70.8085 7.22158Z" fill="white"/>
<path d="M93.4984 7.22158V0.620049H113.463L101.764 21.1838H93.5005L101.246 8.17518C101.491 7.73931 101.737 7.24818 102.118 6.94737V6.78366L99.1177 7.02922L93.5005 7.21953L93.4984 7.22158Z" fill="white"/>
<path d="M116.188 7.22158V0.620049H136.152L124.453 21.1838H116.19L123.936 8.17518C124.181 7.73931 124.427 7.24818 124.808 6.94737V6.78366L121.808 7.02922L116.19 7.21953L116.188 7.22158Z" fill="white"/>
<path d="M138.88 7.22158V0.620049H158.844L147.146 21.1838H138.882L146.628 8.17518C146.873 7.73931 147.119 7.24818 147.5 6.94737V6.78366L144.5 7.02922L138.882 7.21953L138.88 7.22158Z" fill="white"/>
<path d="M0.500061 28.8249H9.44466C14.2761 28.8249 17.6157 31.0616 17.6157 36.2204C17.6157 41.3793 14.7529 43.8533 9.65338 43.8533H6.34444V51.3081H0.500061V28.8249ZM6.34444 39.1426H7.32873C9.4467 39.1426 11.534 39.1426 11.534 36.3984C11.534 33.6543 9.59609 33.5356 7.32873 33.5356H6.34444V39.1405V39.1426Z" fill="white"/>
<path d="M36.8186 51.3081H31.3917V49.6076H31.3323C30.3787 51.1281 28.5002 51.8136 26.7096 51.8136C22.177 51.8136 18.9867 48.0258 18.9867 43.6425C18.9867 39.2592 22.1176 35.5021 26.6503 35.5021C28.4101 35.5021 30.258 36.159 31.3917 37.4994V36.0076H36.8186V51.3041V51.3081ZM24.5937 43.6732C24.5937 45.6111 25.8768 47.1029 28.0827 47.1029C30.2887 47.1029 31.5717 45.6111 31.5717 43.6732C31.5717 41.7353 30.2887 40.2149 28.0827 40.2149C25.8768 40.2149 24.5937 41.7947 24.5937 43.6732Z" fill="white"/>
<path d="M45.8533 38.5164H45.9126C46.9562 36.6379 48.7447 35.8029 50.8627 35.8029H51.9064V41.0211C51.1615 40.6037 50.4453 40.5136 49.6103 40.5136C46.5981 40.5136 45.8533 42.5109 45.8533 45.1364V51.3081H40.4263V36.0117H45.8533V38.5164Z" fill="white"/>
<path d="M60.4048 51.3082H54.9779V40.483H53.218V36.0096H54.9779V31.4176H60.4048V36.0096H63.4764V40.483H60.4048V51.3082Z" fill="white"/>
<path d="M70.6325 37.9782H70.6918C71.9442 36.1304 73.4646 35.5042 75.5826 35.5042C79.6978 35.5042 81.3369 38.099 81.3369 41.8561V51.3082H75.91V43.8533C75.91 42.3922 76.1494 39.8281 73.4646 39.8281C71.2587 39.8281 70.6325 41.4673 70.6325 43.3765V51.3082H65.2056V36.0117H70.6325V37.9803V37.9782Z" fill="white"/>
<path d="M100.63 44.5695H89.2093C89.2093 46.7755 90.3716 47.9685 92.6083 47.9685C93.7706 47.9685 94.6055 47.5797 95.203 46.5668H100.421C99.5556 50.1745 96.128 51.8157 92.639 51.8157C87.5701 51.8157 83.7823 48.9528 83.7823 43.6753C83.7823 38.3977 87.2714 35.5042 92.2501 35.5042C97.5584 35.5042 100.63 38.7845 100.63 44.0027V44.5695ZM95.5898 41.4386C95.3217 39.9775 93.9793 39.0239 92.5182 39.0239C90.9384 39.0239 89.6267 39.8588 89.2973 41.4386H95.5898Z" fill="white"/>
<path d="M108.531 38.5164H108.59C109.634 36.6379 111.422 35.8029 113.54 35.8029H114.584V41.0211C113.839 40.6037 113.123 40.5136 112.288 40.5136C109.276 40.5136 108.531 42.5109 108.531 45.1364V51.3081H103.104V36.0117H108.531V38.5164Z" fill="white"/>
<path d="M126.721 39.9468C125.886 39.4987 124.724 39.202 123.799 39.202C123.172 39.202 122.098 39.47 122.098 40.2456C122.098 41.2892 123.799 41.4386 124.544 41.588C127.079 42.0955 128.986 43.2885 128.986 46.1207C128.986 50.1458 125.319 51.8157 121.771 51.8157C119.593 51.8157 117.447 51.1895 115.599 50.0558L117.568 46.268C118.671 47.0436 120.52 47.8191 121.861 47.8191C122.546 47.8191 123.561 47.4917 123.561 46.6568C123.561 45.4638 121.861 45.4044 120.162 44.9563C118.462 44.5081 116.763 43.6732 116.763 40.9311C116.763 37.174 120.162 35.5042 123.502 35.5042C125.231 35.5042 126.96 35.7723 128.542 36.4885L126.723 39.9468H126.721Z" fill="white"/>
</svg>
